<svg xmlns="http://www.w3.org/2000/svg" width="370" height="320" viewBox="0 0 370 320">
<line x1="185" y1="155" x2="385.0" y2="155.0" stroke="#FFE535" stroke-width="8" stroke-linecap="round"/>
<line x1="185" y1="155" x2="385.0" y2="155.0" stroke="#FFF8A0" stroke-width="4" stroke-linecap="round"/>
<line x1="185" y1="155" x2="326.4213562373095" y2="296.4213562373095" stroke="#FFE535" stroke-width="8" stroke-linecap="round"/>
<line x1="185" y1="155" x2="326.4213562373095" y2="296.4213562373095" stroke="#FFF8A0" stroke-width="4" stroke-linecap="round"/>
<line x1="185" y1="155" x2="185.0" y2="355.0" stroke="#FFE535" stroke-width="8" stroke-linecap="round"/>
<line x1="185" y1="155" x2="185.0" y2="355.0" stroke="#FFF8A0" stroke-width="4" stroke-linecap="round"/>
<line x1="185" y1="155" x2="43.57864376269052" y2="296.4213562373095" stroke="#FFE535" stroke-width="8" stroke-linecap="round"/>
<line x1="185" y1="155" x2="43.57864376269052" y2="296.4213562373095" stroke="#FFF8A0" stroke-width="4" stroke-linecap="round"/>
<line x1="185" y1="155" x2="-15.0" y2="155.00000000000003" stroke="#FFE535" stroke-width="8" stroke-linecap="round"/>
<line x1="185" y1="155" x2="-15.0" y2="155.00000000000003" stroke="#FFF8A0" stroke-width="4" stroke-linecap="round"/>
<line x1="185" y1="155" x2="43.57864376269046" y2="13.578643762690518" stroke="#FFE535" stroke-width="8" stroke-linecap="round"/>
<line x1="185" y1="155" x2="43.57864376269046" y2="13.578643762690518" stroke="#FFF8A0" stroke-width="4" stroke-linecap="round"/>
<line x1="185" y1="155" x2="184.99999999999997" y2="-45.0" stroke="#FFE535" stroke-width="8" stroke-linecap="round"/>
<line x1="185" y1="155" x2="184.99999999999997" y2="-45.0" stroke="#FFF8A0" stroke-width="4" stroke-linecap="round"/>
<line x1="185" y1="155" x2="326.4213562373095" y2="13.578643762690461" stroke="#FFE535" stroke-width="8" stroke-linecap="round"/>
<line x1="185" y1="155" x2="326.4213562373095" y2="13.578643762690461" stroke="#FFF8A0" stroke-width="4" stroke-linecap="round"/>
<path d="M 60.0,28.0 L 63.2,35.6 L 71.4,36.3 L 65.1,41.7 L 67.1,49.7 L 60.0,45.4 L 52.9,49.7 L 54.9,41.7 L 48.6,36.3 L 56.8,35.6 Z" fill="#FFD700" stroke="#1A1206" stroke-width="1.5" stroke-linecap="round" stroke-linejoin="round" />
<path d="M 308.0,40.0 L 310.6,46.4 L 317.5,46.9 L 312.3,51.4 L 313.9,58.1 L 308.0,54.5 L 302.1,58.1 L 303.7,51.4 L 298.5,46.9 L 305.4,46.4 Z" fill="#FFD700" stroke="#1A1206" stroke-width="1.5" stroke-linecap="round" stroke-linejoin="round" />
<path d="M 50.0,231.0 L 52.4,236.7 L 58.6,237.2 L 53.9,241.3 L 55.3,247.3 L 50.0,244.1 L 44.7,247.3 L 46.1,241.3 L 41.4,237.2 L 47.6,236.7 Z" fill="#FFD700" stroke="#1A1206" stroke-width="1.5" stroke-linecap="round" stroke-linejoin="round" />
<path d="M 320.0,189.0 L 322.9,196.0 L 330.5,196.6 L 324.7,201.5 L 326.5,208.9 L 320.0,204.9 L 313.5,208.9 L 315.3,201.5 L 309.5,196.6 L 317.1,196.0 Z" fill="#FFD700" stroke="#1A1206" stroke-width="1.5" stroke-linecap="round" stroke-linejoin="round" />
<path d="M 123,110 Q 113,60 135,18 Q 160,0 185,-2 Q 210,0 235,18 Q 257,60 247,110 Z" fill="#F4F4F4" stroke="#1A1206" stroke-width="3.5" stroke-linecap="round" stroke-linejoin="round" />
<path d="M 123,110 Q 110,130 120,148 Q 127,158 137,155" fill="none" stroke="#C8C8CE" stroke-width="4" stroke-linecap="round" stroke-linejoin="round" />
<path d="M 247,110 Q 260,130 250,148 Q 243,158 233,155" fill="none" stroke="#C8C8CE" stroke-width="4" stroke-linecap="round" stroke-linejoin="round" />
<path d="M 165,2 Q 185,-6 205,5" fill="none" stroke="#FFFFFF" stroke-width="5" stroke-linecap="round" stroke-linejoin="round" />
<ellipse cx="185" cy="90" rx="60" ry="68" fill="#FFE0B8" stroke="#1A1206" stroke-width="3.5" />
<ellipse cx="147" cy="108" rx="16" ry="10" fill="#FFAAB0" stroke="none" stroke-width="0" opacity="0.7"/>
<ellipse cx="223" cy="108" rx="16" ry="10" fill="#FFAAB0" stroke="none" stroke-width="0" opacity="0.7"/>
<path d="M 155,65 Q 165,58 177,64" fill="none" stroke="#1A1206" stroke-width="3.5" stroke-linecap="round" stroke-linejoin="round" />
<path d="M 215,65 Q 205,58 193,64" fill="none" stroke="#1A1206" stroke-width="3.5" stroke-linecap="round" stroke-linejoin="round" />
<ellipse cx="163" cy="82" rx="14" ry="16" fill="#E8F5FF" stroke="#1A1206" stroke-width="3.5" />
<ellipse cx="207" cy="82" rx="14" ry="16" fill="#E8F5FF" stroke="#1A1206" stroke-width="3.5" />
<circle cx="163" cy="83" r="10" fill="#2B1D0E" stroke="#1A1206" stroke-width="3.5" />
<circle cx="207" cy="83" r="10" fill="#2B1D0E" stroke="#1A1206" stroke-width="3.5" />
<circle cx="159" cy="78" r="3.5" fill="#FFFFFF" stroke="none" stroke-width="3.5" />
<circle cx="203" cy="78" r="3.5" fill="#FFFFFF" stroke="none" stroke-width="3.5" />
<circle cx="165" cy="85" r="1.8" fill="#FFFFFF" stroke="none" stroke-width="3.5" />
<circle cx="209" cy="85" r="1.8" fill="#FFFFFF" stroke="none" stroke-width="3.5" />
<line x1="159" y1="67" x2="158" y2="61" stroke="#1A1206" stroke-width="2" stroke-linecap="round"/>
<line x1="203" y1="67" x2="204" y2="61" stroke="#1A1206" stroke-width="2" stroke-linecap="round"/>
<line x1="167" y1="67" x2="166" y2="61" stroke="#1A1206" stroke-width="2" stroke-linecap="round"/>
<line x1="211" y1="67" x2="212" y2="61" stroke="#1A1206" stroke-width="2" stroke-linecap="round"/>
<ellipse cx="163" cy="82" rx="14" ry="16" fill="none" stroke="#1A1206" stroke-width="3.5" />
<ellipse cx="207" cy="82" rx="14" ry="16" fill="none" stroke="#1A1206" stroke-width="3.5" />
<circle cx="185" cy="98" r="3" fill="#F5C08A" stroke="none" stroke-width="3.5" />
<path d="M 167,120 Q 185,144 203,120" fill="#FFFEF8" stroke="#1A1206" stroke-width="3.5" stroke-linecap="round" stroke-linejoin="round" />
<path d="M 167,120 Q 185,144 203,120" fill="none" stroke="#E05060" stroke-width="3.5" stroke-linecap="round" stroke-linejoin="round" />
<ellipse cx="185" cy="136" rx="8" ry="6" fill="#FF8090" stroke="#E05060" stroke-width="2" />
<circle cx="163" cy="82" r="17" fill="none" stroke="#4A3010" stroke-width="3.5" />
<circle cx="207" cy="82" r="17" fill="none" stroke="#4A3010" stroke-width="3.5" />
<line x1="180" y1="82" x2="190" y2="82" stroke="#4A3010" stroke-width="3.5" stroke-linecap="round"/>
<line x1="146" y1="82" x2="128" y2="77" stroke="#4A3010" stroke-width="3.5" stroke-linecap="round"/>
<line x1="224" y1="82" x2="242" y2="77" stroke="#4A3010" stroke-width="3.5" stroke-linecap="round"/>
<rect x="175" y="148" width="20" height="18" rx="6" fill="#FFE0B8" stroke="#1A1206" stroke-width="3.5" />
<path d="M 143,160 Q 139,235 147,243 L 223,243 Q 231,235 227,160 Q 205,154 185,156 Q 165,154 Z" fill="#F58220" stroke="#1A1206" stroke-width="3.5" stroke-linecap="round" stroke-linejoin="round" />
<path d="M 155,164 Q 159,225 169,235" fill="none" stroke="#FFB060" stroke-width="3" stroke-linecap="round" stroke-linejoin="round" opacity="0.4"/>
<path d="M 175,160 L 170,230 L 185,237 L 200,230 L 195,160 Z" fill="#FFF8F0" stroke="#1A1206" stroke-width="2" stroke-linecap="round" stroke-linejoin="round" />
<circle cx="185" cy="178" r="4" fill="#C86010" stroke="#1A1206" stroke-width="2" />
<circle cx="185" cy="198" r="4" fill="#C86010" stroke="#1A1206" stroke-width="2" />
<circle cx="185" cy="218" r="4" fill="#C86010" stroke="#1A1206" stroke-width="2" />
<path d="M 143,168 Q 127,205 133,228 Q 145,235 151,222 Q 145,202 155,170 Z" fill="#F58220" stroke="#1A1206" stroke-width="3.5" stroke-linecap="round" stroke-linejoin="round" />
<ellipse cx="133" cy="232" rx="13" ry="11" fill="#FFE0B8" stroke="#1A1206" stroke-width="3.5" />
<path d="M 227,168 Q 243,150 247,110 Q 235,100 223,112 Q 229,146 215,170 Z" fill="#F58220" stroke="#1A1206" stroke-width="3.5" stroke-linecap="round" stroke-linejoin="round" />
<ellipse cx="245" cy="106" rx="13" ry="12" fill="#FFE0B8" stroke="#1A1206" stroke-width="3.5" />
<path d="M 235,92 Q 237,80 253,82 Q 257,92 255,100 Q 243,102 Z" fill="#FFE0B8" stroke="#1A1206" stroke-width="3.5" stroke-linecap="round" stroke-linejoin="round" />
<path d="M 145,243 Q 139,293 145,299 L 225,299 Q 231,293 225,243 Z" fill="#1D3461" stroke="#1A1206" stroke-width="3.5" stroke-linecap="round" stroke-linejoin="round" />
<path d="M 145,243 Q 141,273 147,297" fill="none" stroke="#0F1F3D" stroke-width="4" stroke-linecap="round" stroke-linejoin="round" opacity="0.5"/>
<rect x="157" y="299" width="20" height="38" rx="6" fill="#F5D0B0" stroke="#1A1206" stroke-width="3.5" />
<rect x="193" y="299" width="20" height="38" rx="6" fill="#F5D0B0" stroke="#1A1206" stroke-width="3.5" />
<path d="M 153,337 Q 157,353 177,353 Q 183,347 179,337 Z" fill="#221408" stroke="#1A1206" stroke-width="3.5" stroke-linecap="round" stroke-linejoin="round" />
<path d="M 189,337 Q 193,347 199,353 Q 219,353 223,343 Q 219,337 Z" fill="#221408" stroke="#1A1206" stroke-width="3.5" stroke-linecap="round" stroke-linejoin="round" />
<path d="M 159,339 Q 163,343 167,341" fill="none" stroke="#888" stroke-width="1.5" stroke-linecap="round" stroke-linejoin="round" />
<path d="M 195,339 Q 199,343 203,341" fill="none" stroke="#888" stroke-width="1.5" stroke-linecap="round" stroke-linejoin="round" />
<rect x="200" y="30" width="130" height="46" rx="18.400000000000002" fill="#FEFEF0" stroke="#1A1206" stroke-width="3.5" />
<path d="M 222,76 L 230,92 L 240,76 Z" fill="#FEFEF0" stroke="#1A1206" stroke-width="3.5" stroke-linecap="round" stroke-linejoin="round" />
<text x="265" y="60" font-size="17" font-weight="bold" font-family="'Hiragino Maru Gothic Pro', 'Rounded Mplus 1c', sans-serif" fill="#1A1206" text-anchor="middle">やったぞ！</text>
</svg>
