<svg xmlns="http://www.w3.org/2000/svg" width="370" height="320" viewBox="0 0 370 320">
<line x1="185" y1="145" x2="362.26539554219744" y2="176.25667198004746" stroke="#FF4020" stroke-width="6" stroke-linecap="round"/>
<line x1="185" y1="145" x2="246.5636257986204" y2="314.1446717414635" stroke="#FF4020" stroke-width="6" stroke-linecap="round"/>
<line x1="185" y1="145" x2="69.29823025642291" y2="282.88799976141604" stroke="#FF4020" stroke-width="6" stroke-linecap="round"/>
<line x1="185" y1="145" x2="7.734604457802561" y2="113.74332801995251" stroke="#FF4020" stroke-width="6" stroke-linecap="round"/>
<line x1="185" y1="145" x2="123.43637420137966" y2="-24.144671741463526" stroke="#FF4020" stroke-width="6" stroke-linecap="round"/>
<line x1="185" y1="145" x2="300.7017697435771" y2="7.112000238583931" stroke="#FF4020" stroke-width="6" stroke-linecap="round"/>
<path d="M 119,112 Q 109,58 131,12 Q 158,-4 185,-6 Q 212,-4 239,12 Q 261,58 251,112 Z" fill="#F4F4F4" stroke="#1A1206" stroke-width="3.5" stroke-linecap="round" stroke-linejoin="round" />
<path d="M 119,112 Q 106,132 117,152 Q 125,162 135,158" fill="none" stroke="#C8C8CE" stroke-width="4" stroke-linecap="round" stroke-linejoin="round" />
<path d="M 251,112 Q 264,132 253,152 Q 245,162 235,158" fill="none" stroke="#C8C8CE" stroke-width="4" stroke-linecap="round" stroke-linejoin="round" />
<path d="M 163,-2 Q 185,-10 207,1" fill="none" stroke="#FFFFFF" stroke-width="5" stroke-linecap="round" stroke-linejoin="round" />
<ellipse cx="185" cy="90" rx="68" ry="80" fill="#FFE0B8" stroke="#1A1206" stroke-width="3.5" />
<ellipse cx="139" cy="120" rx="23" ry="15" fill="#FFAAB0" stroke="none" stroke-width="0" opacity="0.7"/>
<ellipse cx="231" cy="120" rx="23" ry="15" fill="#FFAAB0" stroke="none" stroke-width="0" opacity="0.7"/>
<path d="M 151,40 Q 165,46 177,52" fill="none" stroke="#1A1206" stroke-width="4.5" stroke-linecap="round" stroke-linejoin="round" />
<path d="M 219,40 Q 205,46 193,52" fill="none" stroke="#1A1206" stroke-width="4.5" stroke-linecap="round" stroke-linejoin="round" />
<path d="M 140,72 Q 159,84 177,74 Q 159,94 140,82 Z" fill="#2B1D0E" stroke="#1A1206" stroke-width="3.5" stroke-linecap="round" stroke-linejoin="round" />
<path d="M 193,74 Q 211,84 230,72 Q 230,82 211,94 Z" fill="#2B1D0E" stroke="#1A1206" stroke-width="3.5" stroke-linecap="round" stroke-linejoin="round" />
<circle cx="157" cy="78" r="3.5" fill="#FFFFFF" stroke="none" stroke-width="3.5" />
<circle cx="213" cy="78" r="3.5" fill="#FFFFFF" stroke="none" stroke-width="3.5" />
<line x1="140" y1="72" x2="129" y2="58" stroke="#1A1206" stroke-width="3.5" stroke-linecap="round"/>
<line x1="230" y1="72" x2="241" y2="58" stroke="#1A1206" stroke-width="3.5" stroke-linecap="round"/>
<circle cx="185" cy="106" r="4" fill="#F5C08A" stroke="none" stroke-width="3.5" />
<path d="M 167,146 Q 185,138 203,146" fill="#FFFEF8" stroke="#1A1206" stroke-width="3.5" stroke-linecap="round" stroke-linejoin="round" />
<path d="M 167,146 Q 185,138 203,146" fill="none" stroke="#E05060" stroke-width="3.5" stroke-linecap="round" stroke-linejoin="round" />
<circle cx="159" cy="76" r="20" fill="none" stroke="#4A3010" stroke-width="3.5" />
<circle cx="211" cy="76" r="20" fill="none" stroke="#4A3010" stroke-width="3.5" />
<line x1="179" y1="76" x2="191" y2="76" stroke="#4A3010" stroke-width="3.5" stroke-linecap="round"/>
<line x1="139" y1="76" x2="117" y2="70" stroke="#4A3010" stroke-width="3.5" stroke-linecap="round"/>
<line x1="231" y1="76" x2="253" y2="70" stroke="#4A3010" stroke-width="3.5" stroke-linecap="round"/>
<rect x="175" y="160" width="20" height="18" rx="6" fill="#FFE0B8" stroke="#1A1206" stroke-width="3.5" />
<path d="M 143,172 Q 139,228 147,234 L 223,234 Q 231,228 227,172 Q 205,166 185,168 Q 165,166 Z" fill="#F58220" stroke="#1A1206" stroke-width="3.5" stroke-linecap="round" stroke-linejoin="round" />
<path d="M 155,176 Q 159,220 169,228" fill="none" stroke="#FFB060" stroke-width="3" stroke-linecap="round" stroke-linejoin="round" opacity="0.4"/>
<path d="M 175,172 L 171,224 L 185,230 L 199,224 L 195,172 Z" fill="#FFF8F0" stroke="#1A1206" stroke-width="2" stroke-linecap="round" stroke-linejoin="round" />
<circle cx="185" cy="186" r="3.5" fill="#C86010" stroke="#1A1206" stroke-width="2" />
<circle cx="185" cy="200" r="3.5" fill="#C86010" stroke="#1A1206" stroke-width="2" />
<circle cx="185" cy="214" r="3.5" fill="#C86010" stroke="#1A1206" stroke-width="2" />
<path d="M 143,178 Q 117,181 109,196 Q 121,204 129,194 Q 135,183 155,180 Z" fill="#F58220" stroke="#1A1206" stroke-width="3.5" stroke-linecap="round" stroke-linejoin="round" />
<ellipse cx="105" cy="200" rx="11" ry="9" fill="#FFE0B8" stroke="#1A1206" stroke-width="3.5" />
<path d="M 227,178 Q 253,181 261,196 Q 249,204 241,194 Q 235,183 215,180 Z" fill="#F58220" stroke="#1A1206" stroke-width="3.5" stroke-linecap="round" stroke-linejoin="round" />
<ellipse cx="265" cy="200" rx="11" ry="9" fill="#FFE0B8" stroke="#1A1206" stroke-width="3.5" />
<path d="M 145,234 Q 139,270 145,275 L 225,275 Q 231,270 225,234 Z" fill="#1D3461" stroke="#1A1206" stroke-width="3.5" stroke-linecap="round" stroke-linejoin="round" />
<path d="M 145,234 Q 141,254 147,273" fill="none" stroke="#0F1F3D" stroke-width="4" stroke-linecap="round" stroke-linejoin="round" opacity="0.5"/>
<rect x="157" y="275" width="20" height="24" rx="6" fill="#F5D0B0" stroke="#1A1206" stroke-width="3.5" />
<rect x="193" y="275" width="20" height="24" rx="6" fill="#F5D0B0" stroke="#1A1206" stroke-width="3.5" />
<path d="M 153,299 Q 157,311 177,311 Q 183,307 179,299 Z" fill="#221408" stroke="#1A1206" stroke-width="3.5" stroke-linecap="round" stroke-linejoin="round" />
<path d="M 189,299 Q 193,307 199,311 Q 219,311 223,303 Q 219,299 Z" fill="#221408" stroke="#1A1206" stroke-width="3.5" stroke-linecap="round" stroke-linejoin="round" />
<path d="M 159,301 Q 163,304 167,302" fill="none" stroke="#888" stroke-width="1.5" stroke-linecap="round" stroke-linejoin="round" />
<path d="M 195,301 Q 199,304 203,302" fill="none" stroke="#888" stroke-width="1.5" stroke-linecap="round" stroke-linejoin="round" />
<path d="M 298,55 L 308,40 L 318,55 L 308,52 Z" fill="#E82020" stroke="#1A1206" stroke-width="3.5" stroke-linecap="round" stroke-linejoin="round" />
<path d="M 308,52 L 308,64" fill="none" stroke="#E82020" stroke-width="5" stroke-linecap="round" stroke-linejoin="round" />
<rect x="30" y="50" width="112" height="46" rx="18.400000000000002" fill="#FEFEF0" stroke="#1A1206" stroke-width="3.5" />
<path d="M 92,93 L 100,109 L 110,93 Z" fill="#FEFEF0" stroke="#1A1206" stroke-width="3.5" stroke-linecap="round" stroke-linejoin="round" />
<text x="86" y="80" font-size="16" font-weight="bold" font-family="'Hiragino Maru Gothic Pro', 'Rounded Mplus 1c', sans-serif" fill="#1A1206" text-anchor="middle">もう限界！</text>
</svg>
