<svg xmlns="http://www.w3.org/2000/svg" width="370" height="320" viewBox="0 0 370 320">
<defs>
  <filter id="shadow" x="-10%" y="-10%" width="120%" height="120%">    <feDropShadow dx="2" dy="3" stdDeviation="2" flood-color="#00000030"/>  </filter>
</defs>
<ellipse cx="185" cy="75" rx="44" ry="48" fill="#2A2520" stroke="#1A1206" stroke-width="0" />
<path d="M 143,88 Q 137,33 185,21 Q 233,33 227,88 Z" fill="#2A2520" stroke="#1A1206" stroke-width="3" stroke-linejoin="round" stroke-linecap="round" />
<ellipse cx="185" cy="83" rx="42" ry="50" fill="#FFCF9E" stroke="#1A1206" stroke-width="3" />
<ellipse cx="157" cy="95" rx="10" ry="7" fill="#FFB3A7" stroke="none" stroke-width="0" />
<ellipse cx="213" cy="95" rx="10" ry="7" fill="#FFB3A7" stroke="none" stroke-width="0" />
<path d="M 163,65 L 177,71" fill="none" stroke="#1A1206" stroke-width="3.5" stroke-linejoin="round" stroke-linecap="round" />
<path d="M 207,65 L 193,71" fill="none" stroke="#1A1206" stroke-width="3.5" stroke-linejoin="round" stroke-linecap="round" />
<circle cx="171" cy="80" r="9" fill="#FFFFFF" stroke="#1A1206" stroke-width="3"/>
<circle cx="199" cy="80" r="9" fill="#FFFFFF" stroke="#1A1206" stroke-width="3"/>
<circle cx="171" cy="81" r="6" fill="#2B1D0E" stroke="#1A1206" stroke-width="3"/>
<circle cx="199" cy="81" r="6" fill="#2B1D0E" stroke="#1A1206" stroke-width="3"/>
<circle cx="173" cy="79" r="2" fill="#FFFFFF" stroke="none" stroke-width="3"/>
<circle cx="197" cy="79" r="2" fill="#FFFFFF" stroke="none" stroke-width="3"/>
<path d="M 171,109 Q 185,105 199,109" fill="#FFFFFF" stroke="#1A1206" stroke-width="3" stroke-linejoin="round" stroke-linecap="round" />
<path d="M 171,109 Q 185,105 199,109" fill="none" stroke="#1A1206" stroke-width="3" stroke-linejoin="round" stroke-linecap="round" />
<rect x="173" y="127" width="24" height="14" rx="5" fill="#FFCF9E" stroke="#1A1206" stroke-width="3" />
<path d="M 137,139 Q 135,204 143,214 L 227,214 Q 235,204 233,139 Z" fill="#2B4B8A" stroke="#1A1206" stroke-width="3" stroke-linejoin="round" stroke-linecap="round" />
<path d="M 175,139 L 171,189 L 185,194 L 199,189 L 195,139 Z" fill="#FFFFFF" stroke="#1A1206" stroke-width="2" stroke-linejoin="round" stroke-linecap="round" />
<path d="M 180,144 L 190,144 L 188,184 L 185,191 L 182,184 Z" fill="#C0201A" stroke="#1A1206" stroke-width="3" stroke-linejoin="round" stroke-linecap="round" />
<path d="M 137,144 Q 125,179 135,204 Q 145,209 149,199 Q 141,177 151,147 Z" fill="#2B4B8A" stroke="#1A1206" stroke-width="3" stroke-linejoin="round" stroke-linecap="round" />
<ellipse cx="133" cy="207" rx="12" ry="10" fill="#FFCF9E" stroke="#1A1206" stroke-width="3" />
<path d="M 233,144 Q 245,179 235,204 Q 225,209 221,199 Q 229,177 219,147 Z" fill="#2B4B8A" stroke="#1A1206" stroke-width="3" stroke-linejoin="round" stroke-linecap="round" />
<ellipse cx="237" cy="207" rx="12" ry="10" fill="#FFCF9E" stroke="#1A1206" stroke-width="3" />
<path d="M 141,213 Q 135,258 139,268 L 231,268 Q 235,258 229,213 Z" fill="#1A2F5C" stroke="#1A1206" stroke-width="3" stroke-linejoin="round" stroke-linecap="round" />
<rect x="155" y="265" width="22" height="35" rx="4" fill="#1A2F5C" stroke="#1A1206" stroke-width="3" />
<rect x="193" y="265" width="22" height="35" rx="4" fill="#1A2F5C" stroke="#1A1206" stroke-width="3" />
<path d="M 151,297 Q 157,313 175,313 Q 179,307 177,297 Z" fill="#2A1505" stroke="#1A1206" stroke-width="3" stroke-linejoin="round" stroke-linecap="round" />
<path d="M 191,297 Q 197,313 215,313 Q 219,307 217,297 Z" fill="#2A1505" stroke="#1A1206" stroke-width="3" stroke-linejoin="round" stroke-linecap="round" />
<rect x="50" y="200" width="100" height="70" rx="5" fill="#FFFFFF" stroke="#1A1206" stroke-width="3" />
<text x="100" y="228" font-size="17" font-weight="bold" font-family="sans-serif" fill="#1A1206" text-anchor="middle">不信任</text>
<text x="100" y="250" font-size="17" font-weight="bold" font-family="sans-serif" fill="#E03020" text-anchor="middle">動議！</text>
</svg>